Input #0, mov,mp4,m4a,3gp,3g2,mj2, from '/home/hbattu/projects/huberman-gpt/huberman-audio/mp3/tmpgtjzu3u5.mp4':
  Metadata:
    major_brand     : dash
    minor_version   : 0
    compatible_brands: iso6mp41
    creation_time   : 2023-01-18T04:31:29.000000Z
  Duration: 02:00:47.04, start: 0.000000, bitrate: 129 kb/s
    Stream #0:0(eng): Audio: aac (LC) (mp4a / 0x6134706D), 44100 Hz, stereo, fltp, 0 kb/s (default)
    Metadata:
      creation_time   : 2023-01-18T04:31:29.000000Z
      handler_name    : ISO Media file produced by Google Inc.
Stream mapping:
  Stream #0:0 -> #0:0 (aac (native) -> mp3 (libmp3lame))
Press [q] to stop, [?] for help
[graph_0_in_0_0 @ 0x556daaafa200] tb:1/44100 samplefmt:fltp samplerate:44100 chlayout:0x3
Output #0, mp3, to '../huberman-audio/mp3/tLS6t3FVOTI.mp3':
  Metadata:
    major_brand     : dash
    minor_version   : 0
    compatible_brands: iso6mp41
    TSSE            : Lavf58.29.100
    Stream #0:0(eng): Audio: mp3 (libmp3lame), 44100 Hz, stereo, fltp, delay 1105 (default)
    Metadata:
      creation_time   : 2023-01-18T04:31:29.000000Z
      handler_name    : ISO Media file produced by Google Inc.
      encoder         : Lavc58.54.100 libmp3lame
No more output streams to write to, finishing.
size=  113236kB time=02:00:47.04 bitrate= 128.0kbits/s speed=  85x    
[AVIOContext @ 0x556daa9ea900] Statistics: 0 seeks, 171 writeouts
video:0kB audio:113236kB subtitle:0kB other streams:0kB global headers:0kB muxing overhead: 0.000298%
Input file #0 (/home/hbattu/projects/huberman-gpt/huberman-audio/mp3/tmpgtjzu3u5.mp4):
  Input stream #0:0 (audio): 312104 packets read (115952651 bytes); 312104 frames decoded (319594496 samples); 
  Total: 312104 packets (115952651 bytes) demuxed
Output file #0 (../huberman-audio/mp3/tLS6t3FVOTI.mp3):
  Output stream #0:0 (audio): 277426 frames encoded (319594496 samples); 277427 packets muxed (115953162 bytes); 
  Total: 277427 packets (115953162 bytes) muxed
[AVIOContext @ 0x556daaa12a40] Statistics: 2 seeks, 444 writeouts
[AVIOContext @ 0x556daa9f3880] Statistics: 117285947 bytes read, 0 seeks
